<?xml version="1.0" encoding="UTF-8" standalone="no"?><!DOCTYPE svg PUBLIC "-//W3C//DTD SVG 1.1//EN" "http://www.w3.org/Graphics/SVG/1.1/DTD/svg11.dtd"><svg width="100%" height="100%" viewBox="0 0 1317 327" version="1.1" xmlns="http://www.w3.org/2000/svg" xmlns:xlink="http://www.w3.org/1999/xlink" xml:space="preserve" xmlns:serif="http://www.serif.com/" style="fill-rule:evenodd;clip-rule:evenodd;stroke-linejoin:round;stroke-miterlimit:2;"><rect id="Artboard1" x="0" y="0" width="1316.51" height="326.25" style="fill:none;"/><clipPath id="_clip1"><rect x="0" y="0" width="1316.51" height="326.25"/></clipPath><g clip-path="url(#_clip1)"><g><g id="Sygnet"><path id="Border" d="M326.25,326.25l-326.25,0l0,-326.25l326.25,0l0,326.25Zm-315.278,-315.278l0,304.306l304.306,0l0,-304.306l-304.306,0Z" style="fill:white;"/><rect id="Border-Inside" x="25.015" y="25.015" width="276.22" height="276.22" style="fill:none;"/><clipPath id="_clip2"><rect x="25.015" y="25.015" width="276.22" height="276.22"/></clipPath><g clip-path="url(#_clip2)"><g><path d="M104.168,-141.534l-271.284,271.284l7.82,7.82l271.284,-271.284l-7.82,-7.82Z" style="fill:white;"/><path d="M118.877,-126.825l-271.284,271.284l7.82,7.82l271.284,-271.284l-7.82,-7.82Z" style="fill:white;"/><path d="M133.586,-112.116l-271.284,271.284l7.82,7.82l271.284,-271.283l-7.82,-7.821Z" style="fill:white;"/><path d="M148.295,-97.406l-271.283,271.283l7.82,7.821l271.283,-271.284l-7.82,-7.82Z" style="fill:white;"/><path d="M163.005,-82.697l-271.284,271.284l7.82,7.82l271.284,-271.284l-7.82,-7.82Z" style="fill:white;"/><path d="M177.714,-67.988l-271.284,271.284l7.82,7.82l271.284,-271.284l-7.82,-7.82Z" style="fill:white;"/><path d="M192.423,-53.278l-271.284,271.283l7.821,7.82l271.283,-271.283l-7.82,-7.82Z" style="fill:white;"/><path d="M207.132,-38.569l-271.283,271.284l7.82,7.82l271.284,-271.284l-7.821,-7.82Z" style="fill:white;"/><path d="M221.842,-23.86l-271.284,271.284l7.82,7.82l271.284,-271.284l-7.82,-7.82Z" style="fill:white;"/><path d="M236.551,-9.151l-271.284,271.284l7.82,7.82l271.284,-271.284l-7.82,-7.82Z" style="fill:white;"/><path d="M251.26,5.559l-271.283,271.283l7.82,7.82l271.283,-271.283l-7.82,-7.82Z" style="fill:white;"/></g></g><path id="alfa" d="M256.883,185.985c-1.619,-4.964 -3.858,-9.766 -6.717,-14.406c-2.86,-4.64 -6.367,-8.741 -10.522,-12.302c-4.154,-3.561 -8.956,-6.421 -14.406,-8.579c-5.449,-2.158 -11.627,-3.237 -18.534,-3.237c-7.877,0 -15.269,1.537 -22.176,4.613c-6.906,3.075 -12.949,7.662 -18.129,13.759c-5.18,6.097 -9.253,13.704 -12.221,22.823c-2.967,9.119 -4.451,19.721 -4.451,31.807c0,11.439 1.349,21.42 4.047,29.945c2.697,8.525 6.339,15.621 10.926,21.286c4.586,5.665 9.901,9.928 15.944,12.788c6.043,2.859 12.409,4.289 19.1,4.289c6.367,0 12.491,-1.268 18.372,-3.804c5.881,-2.536 11.169,-6.313 15.863,-11.331c4.694,-5.017 8.633,-11.249 11.816,-18.695c3.184,-7.446 5.261,-16.133 6.232,-26.061l4.856,-42.895Zm44.352,102.462l0,6.313c0,1.403 -1.079,2.671 -3.237,3.804c-2.159,1.133 -5.342,1.7 -9.551,1.7c-4.532,0 -8.875,-0.675 -13.03,-2.024c-4.155,-1.349 -7.851,-3.453 -11.088,-6.313c-3.237,-2.859 -5.935,-6.555 -8.093,-11.087c-2.159,-4.533 -3.507,-9.982 -4.047,-16.349c-3.129,6.151 -6.717,11.52 -10.764,16.106c-4.047,4.586 -8.444,8.417 -13.192,11.492c-4.748,3.076 -9.793,5.369 -15.135,6.88c-5.342,1.51 -10.764,2.266 -16.268,2.266c-8.741,0 -16.942,-1.808 -24.604,-5.423c-7.661,-3.615 -14.325,-8.848 -19.99,-15.701c-5.666,-6.852 -10.144,-15.269 -13.435,-25.251c-3.291,-9.982 -4.937,-21.34 -4.937,-34.073c0,-13.489 1.834,-25.521 5.503,-36.097c3.669,-10.575 8.687,-19.532 15.054,-26.87c6.367,-7.338 13.84,-12.922 22.419,-16.753c8.579,-3.831 17.724,-5.746 27.436,-5.746c6.907,0 13.246,0.917 19.02,2.751c5.773,1.835 10.953,4.317 15.539,7.446c4.586,3.13 8.606,6.772 12.059,10.926c3.453,4.155 6.313,8.498 8.579,13.031l3.561,-27.356c0.756,-2.698 2.374,-4.047 4.856,-4.047l8.417,0l-9.388,89.675c-0.432,5.396 -0.836,10.656 -1.214,15.782c-0.378,5.126 -0.567,9.577 -0.567,13.354c0,5.719 0.729,10.602 2.186,14.649c1.456,4.047 3.507,7.311 6.151,9.793c2.643,2.482 5.746,4.29 9.307,5.423c3.561,1.133 7.446,1.699 11.654,1.699l6.799,0Z" style="fill:white;fill-rule:nonzero;"/></g><path d="M422.4,257.781l1.814,0c0.629,0 1.134,-0.079 1.515,-0.236c0.381,-0.157 0.728,-0.426 1.043,-0.807l11.847,-13.413c0.331,-0.43 0.679,-0.728 1.043,-0.894c0.365,-0.165 0.812,-0.248 1.342,-0.248l4.073,0l-13.561,15.325c-0.331,0.397 -0.65,0.724 -0.956,0.981c-0.307,0.256 -0.634,0.467 -0.982,0.633c0.448,0.149 0.853,0.368 1.218,0.658c0.364,0.29 0.72,0.667 1.068,1.13l14.157,16.865l-4.173,0c-0.314,0 -0.584,-0.021 -0.807,-0.062c-0.224,-0.042 -0.418,-0.108 -0.584,-0.199c-0.165,-0.091 -0.31,-0.199 -0.434,-0.323c-0.125,-0.124 -0.245,-0.269 -0.361,-0.434l-12.269,-14.133c-0.331,-0.414 -0.687,-0.708 -1.068,-0.882c-0.381,-0.173 -0.961,-0.26 -1.739,-0.26l-2.186,0l0,16.293l-4.793,0l0,-35.592l4.793,0l0,15.598Z" style="fill:white;fill-rule:nonzero;"/><path d="M473.888,264.561l-5.588,-14.48c-0.166,-0.43 -0.339,-0.931 -0.522,-1.502c-0.182,-0.572 -0.356,-1.18 -0.521,-1.826c-0.348,1.341 -0.704,2.459 -1.068,3.353l-5.589,14.455l13.288,0Zm10.035,13.214l-3.726,0c-0.43,0 -0.778,-0.108 -1.043,-0.323c-0.265,-0.215 -0.464,-0.488 -0.596,-0.82l-3.328,-8.593l-15.971,0l-3.328,8.593c-0.099,0.298 -0.29,0.563 -0.571,0.795c-0.282,0.232 -0.63,0.348 -1.043,0.348l-3.726,0l14.232,-35.592l4.868,0l14.232,35.592Z" style="fill:white;fill-rule:nonzero;"/><path d="M521.924,242.183l0,35.592l-2.409,0c-0.381,0 -0.7,-0.066 -0.957,-0.199c-0.256,-0.132 -0.509,-0.356 -0.757,-0.67l-20.59,-26.825c0.033,0.414 0.058,0.82 0.074,1.217c0.017,0.398 0.025,0.77 0.025,1.118l0,25.359l-4.222,0l0,-35.592l2.483,0c0.216,0 0.398,0.012 0.547,0.037c0.149,0.025 0.281,0.066 0.397,0.124c0.116,0.058 0.232,0.141 0.348,0.249c0.116,0.107 0.24,0.244 0.373,0.41l20.59,26.799c-0.033,-0.43 -0.062,-0.848 -0.087,-1.254c-0.025,-0.406 -0.037,-0.791 -0.037,-1.155l0,-25.21l4.222,0Z" style="fill:white;fill-rule:nonzero;"/><path d="M560.472,270.423c0.265,0 0.496,0.108 0.695,0.323l1.912,2.061c-1.457,1.689 -3.224,3.006 -5.302,3.95c-2.078,0.943 -4.591,1.415 -7.538,1.415c-2.55,0 -4.869,-0.443 -6.955,-1.328c-2.086,-0.886 -3.866,-2.128 -5.34,-3.726c-1.474,-1.598 -2.616,-3.515 -3.428,-5.75c-0.811,-2.235 -1.217,-4.694 -1.217,-7.377c0,-2.682 0.423,-5.141 1.267,-7.376c0.845,-2.236 2.033,-4.156 3.564,-5.763c1.532,-1.606 3.366,-2.852 5.502,-3.738c2.136,-0.885 4.495,-1.328 7.078,-1.328c2.534,0 4.769,0.405 6.707,1.217c1.937,0.811 3.642,1.912 5.116,3.303l-1.59,2.211c-0.099,0.165 -0.227,0.302 -0.384,0.409c-0.158,0.108 -0.369,0.162 -0.634,0.162c-0.298,0 -0.662,-0.162 -1.093,-0.485c-0.43,-0.322 -0.993,-0.683 -1.689,-1.08c-0.695,-0.397 -1.564,-0.758 -2.608,-1.08c-1.043,-0.323 -2.326,-0.485 -3.849,-0.485c-1.838,0 -3.519,0.319 -5.042,0.956c-1.524,0.638 -2.836,1.561 -3.937,2.77c-1.101,1.209 -1.958,2.682 -2.571,4.421c-0.612,1.739 -0.919,3.701 -0.919,5.886c0,2.219 0.319,4.198 0.956,5.937c0.638,1.738 1.507,3.208 2.608,4.408c1.102,1.201 2.401,2.115 3.9,2.745c1.498,0.629 3.117,0.944 4.856,0.944c1.059,0 2.016,-0.063 2.868,-0.187c0.853,-0.124 1.64,-0.319 2.36,-0.583c0.72,-0.265 1.391,-0.601 2.012,-1.006c0.621,-0.406 1.237,-0.89 1.85,-1.453c0.282,-0.249 0.563,-0.373 0.845,-0.373Z" style="fill:white;fill-rule:nonzero;"/><path d="M595.095,273.851l-0.025,3.924l-21.931,0l0,-35.592l21.931,0l0,3.924l-17.113,0l0,11.823l13.859,0l0,3.775l-13.859,0l0,12.146l17.138,0Z" style="fill:white;fill-rule:nonzero;"/><path d="M626.489,273.726l0,4.049l-20.192,0l0,-35.592l4.793,0l0,31.543l15.399,0Z" style="fill:white;fill-rule:nonzero;"/><path d="M655.177,264.561l-5.589,-14.48c-0.165,-0.43 -0.339,-0.931 -0.521,-1.502c-0.183,-0.572 -0.356,-1.18 -0.522,-1.826c-0.348,1.341 -0.704,2.459 -1.068,3.353l-5.588,14.455l13.288,0Zm10.034,13.214l-3.726,0c-0.43,0 -0.778,-0.108 -1.043,-0.323c-0.265,-0.215 -0.464,-0.488 -0.596,-0.82l-3.328,-8.593l-15.971,0l-3.328,8.593c-0.099,0.298 -0.29,0.563 -0.571,0.795c-0.282,0.232 -0.629,0.348 -1.043,0.348l-3.726,0l14.232,-35.592l4.868,0l14.232,35.592Z" style="fill:white;fill-rule:nonzero;"/><path d="M684.236,259.42c1.391,0 2.621,-0.17 3.689,-0.509c1.068,-0.339 1.962,-0.82 2.682,-1.441c0.72,-0.621 1.263,-1.362 1.627,-2.223c0.364,-0.861 0.546,-1.813 0.546,-2.856c0,-2.119 -0.695,-3.717 -2.086,-4.793c-1.391,-1.077 -3.477,-1.615 -6.259,-1.615l-5.265,0l0,13.437l5.066,0Zm16.443,18.355l-4.272,0c-0.878,0 -1.524,-0.339 -1.938,-1.018l-9.239,-12.717c-0.282,-0.398 -0.584,-0.683 -0.907,-0.857c-0.323,-0.174 -0.824,-0.261 -1.502,-0.261l-3.651,0l0,14.853l-4.794,0l0,-35.592l10.059,0c2.252,0 4.198,0.228 5.837,0.683c1.639,0.455 2.993,1.114 4.061,1.975c1.068,0.861 1.858,1.9 2.372,3.117c0.513,1.217 0.77,2.579 0.77,4.085c0,1.259 -0.199,2.434 -0.596,3.527c-0.398,1.093 -0.973,2.074 -1.727,2.944c-0.753,0.869 -1.672,1.61 -2.757,2.223c-1.084,0.612 -2.314,1.076 -3.688,1.39c0.613,0.348 1.143,0.853 1.59,1.515l10.382,14.133Z" style="fill:white;fill-rule:nonzero;"/><rect x="709.968" y="242.183" width="4.818" height="35.592" style="fill:white;fill-rule:nonzero;"/><path d="M747.249,264.561l-5.589,-14.48c-0.165,-0.43 -0.339,-0.931 -0.521,-1.502c-0.182,-0.572 -0.356,-1.18 -0.522,-1.826c-0.347,1.341 -0.703,2.459 -1.068,3.353l-5.588,14.455l13.288,0Zm10.034,13.214l-3.725,0c-0.431,0 -0.779,-0.108 -1.044,-0.323c-0.265,-0.215 -0.463,-0.488 -0.596,-0.82l-3.328,-8.593l-15.97,0l-3.329,8.593c-0.099,0.298 -0.289,0.563 -0.571,0.795c-0.281,0.232 -0.629,0.348 -1.043,0.348l-3.726,0l14.232,-35.592l4.868,0l14.232,35.592Z" style="fill:white;fill-rule:nonzero;"/><path d="M792.478,260.637c1.374,0 2.587,-0.182 3.638,-0.546c1.052,-0.365 1.938,-0.874 2.658,-1.528c0.72,-0.654 1.263,-1.436 1.627,-2.347c0.364,-0.911 0.546,-1.912 0.546,-3.005c0,-2.269 -0.699,-4.04 -2.098,-5.315c-1.4,-1.275 -3.523,-1.913 -6.371,-1.913l-5.713,0l0,14.654l5.713,0Zm0,-18.454c2.252,0 4.21,0.261 5.874,0.782c1.664,0.522 3.042,1.263 4.135,2.223c1.093,0.961 1.909,2.12 2.447,3.478c0.538,1.357 0.807,2.872 0.807,4.545c0,1.656 -0.29,3.171 -0.869,4.545c-0.58,1.374 -1.429,2.558 -2.546,3.552c-1.118,0.993 -2.501,1.767 -4.148,2.322c-1.648,0.555 -3.548,0.832 -5.7,0.832l-5.713,0l0,13.313l-4.793,0l0,-35.592l10.506,0Z" style="fill:white;fill-rule:nonzero;"/><path d="M826.132,259.42c1.391,0 2.621,-0.17 3.689,-0.509c1.068,-0.339 1.962,-0.82 2.682,-1.441c0.72,-0.621 1.263,-1.362 1.627,-2.223c0.364,-0.861 0.546,-1.813 0.546,-2.856c0,-2.119 -0.695,-3.717 -2.086,-4.793c-1.391,-1.077 -3.477,-1.615 -6.259,-1.615l-5.265,0l0,13.437l5.066,0Zm16.443,18.355l-4.272,0c-0.878,0 -1.524,-0.339 -1.938,-1.018l-9.239,-12.717c-0.282,-0.398 -0.584,-0.683 -0.907,-0.857c-0.323,-0.174 -0.823,-0.261 -1.502,-0.261l-3.651,0l0,14.853l-4.794,0l0,-35.592l10.059,0c2.252,0 4.198,0.228 5.837,0.683c1.639,0.455 2.993,1.114 4.061,1.975c1.068,0.861 1.858,1.9 2.372,3.117c0.513,1.217 0.77,2.579 0.77,4.085c0,1.259 -0.199,2.434 -0.596,3.527c-0.398,1.093 -0.973,2.074 -1.727,2.944c-0.753,0.869 -1.672,1.61 -2.757,2.223c-1.084,0.612 -2.314,1.076 -3.688,1.39c0.613,0.348 1.143,0.853 1.59,1.515l10.382,14.133Z" style="fill:white;fill-rule:nonzero;"/><path d="M870.765,264.561l-5.588,-14.48c-0.166,-0.43 -0.34,-0.931 -0.522,-1.502c-0.182,-0.572 -0.356,-1.18 -0.521,-1.826c-0.348,1.341 -0.704,2.459 -1.068,3.353l-5.589,14.455l13.288,0Zm10.035,13.214l-3.726,0c-0.431,0 -0.778,-0.108 -1.043,-0.323c-0.265,-0.215 -0.464,-0.488 -0.596,-0.82l-3.329,-8.593l-15.97,0l-3.328,8.593c-0.1,0.298 -0.29,0.563 -0.571,0.795c-0.282,0.232 -0.63,0.348 -1.044,0.348l-3.725,0l14.232,-35.592l4.868,0l14.232,35.592Z" style="fill:white;fill-rule:nonzero;"/><path d="M933.952,242.183l-11.103,35.592l-4.321,0l-9.016,-27.147c-0.083,-0.265 -0.162,-0.547 -0.236,-0.845c-0.075,-0.298 -0.154,-0.612 -0.236,-0.944c-0.083,0.332 -0.166,0.646 -0.249,0.944c-0.083,0.298 -0.165,0.58 -0.248,0.845l-9.066,27.147l-4.321,0l-11.103,-35.592l3.999,0c0.431,0 0.791,0.108 1.08,0.323c0.29,0.215 0.477,0.488 0.559,0.819l7.352,24.739c0.116,0.447 0.228,0.927 0.335,1.44c0.108,0.513 0.212,1.06 0.311,1.639c0.116,-0.579 0.236,-1.13 0.36,-1.651c0.124,-0.522 0.261,-0.998 0.41,-1.428l8.37,-24.739c0.099,-0.281 0.294,-0.542 0.584,-0.782c0.29,-0.24 0.641,-0.36 1.055,-0.36l1.391,0c0.431,0 0.779,0.108 1.043,0.323c0.265,0.215 0.464,0.488 0.597,0.819l8.345,24.739c0.149,0.43 0.286,0.894 0.41,1.39c0.124,0.497 0.244,1.019 0.36,1.565c0.083,-0.546 0.174,-1.068 0.273,-1.565c0.099,-0.496 0.207,-0.96 0.323,-1.39l7.377,-24.739c0.082,-0.298 0.269,-0.562 0.559,-0.794c0.289,-0.232 0.641,-0.348 1.055,-0.348l3.751,0Z" style="fill:white;fill-rule:nonzero;"/><path d="M972.574,242.183l0,35.592l-2.41,0c-0.38,0 -0.699,-0.066 -0.956,-0.199c-0.256,-0.132 -0.509,-0.356 -0.757,-0.67l-20.59,-26.825c0.033,0.414 0.057,0.82 0.074,1.217c0.017,0.398 0.025,0.77 0.025,1.118l0,25.359l-4.222,0l0,-35.592l2.483,0c0.216,0 0.398,0.012 0.547,0.037c0.149,0.025 0.281,0.066 0.397,0.124c0.116,0.058 0.232,0.141 0.348,0.249c0.116,0.107 0.24,0.244 0.372,0.41l20.591,26.799c-0.034,-0.43 -0.063,-0.848 -0.087,-1.254c-0.025,-0.406 -0.038,-0.791 -0.038,-1.155l0,-25.21l4.223,0Z" style="fill:white;fill-rule:nonzero;"/><path d="M1005.04,264.561l-5.588,-14.48c-0.166,-0.43 -0.34,-0.931 -0.522,-1.502c-0.182,-0.572 -0.356,-1.18 -0.521,-1.826c-0.348,1.341 -0.704,2.459 -1.068,3.353l-5.589,14.455l13.288,0Zm10.035,13.214l-3.726,0c-0.431,0 -0.778,-0.108 -1.043,-0.323c-0.265,-0.215 -0.464,-0.488 -0.596,-0.82l-3.329,-8.593l-15.97,0l-3.328,8.593c-0.1,0.298 -0.29,0.563 -0.571,0.795c-0.282,0.232 -0.63,0.348 -1.044,0.348l-3.725,0l14.232,-35.592l4.868,0l14.232,35.592Z" style="fill:white;fill-rule:nonzero;"/><path d="M418.211,208.736l39.158,0l13.14,-31.543l61.234,0l12.877,31.543l39.158,0l-65.964,-160.658l-33.639,0l-65.964,160.658Zm63.861,-60.315l18.923,-45.257l18.659,45.257l-37.582,0Z" style="fill:white;fill-rule:nonzero;"/><path d="M627.972,208.736l116.939,0l0,-32.429l-79.909,0l0,-128.001l-37.03,0l0,160.43Z" style="fill:white;fill-rule:nonzero;"/><path d="M790.155,208.736l37.03,0l0,-43.201l31.3,-0.228c23.668,0 57.809,-17.585 57.809,-55.985c0,-39.32 -37.03,-60.559 -63.595,-60.559l-62.544,0l0,159.973Zm37.03,-75.629l0,-52.143l25.514,0c7.101,0 26.565,6.86 26.565,28.358c0,22.87 -20.516,23.785 -20.779,23.785l-31.3,0Z" style="fill:white;fill-rule:nonzero;"/><path d="M969.162,208.736l37.293,0l0,-56.001l54.707,0l0,56.001l37.03,0l0,-159.744l-37.03,0l0,74.972l-54.707,0l0,-74.972l-37.293,0l0,159.744Z" style="fill:white;fill-rule:nonzero;"/><path d="M1150.01,208.736l39.158,0l13.141,-31.543l61.234,0l12.877,31.543l39.158,0l-65.964,-160.658l-33.639,0l-65.965,160.658Zm63.862,-60.315l18.922,-45.257l18.66,45.257l-37.582,0Z" style="fill:white;fill-rule:nonzero;"/></g></g></svg>